<svg width="20" height="17" viewBox="0 0 20 17" fill="none" xmlns="http://www.w3.org/2000/svg">
<path d="M9.99978 16.0571L2.73978 8.1881L2.72778 8.1771C1.54078 6.9441 1.24078 5.0471 1.99778 3.4771C2.55978 2.3071 3.62178 1.5031 4.83978 1.2981C5.44667 1.19813 6.0688 1.2484 6.65176 1.44452C7.23472 1.64064 7.76073 1.97663 8.18378 2.4231L9.45978 3.7481C9.52974 3.82068 9.61362 3.87842 9.7064 3.91786C9.79919 3.95729 9.89897 3.97762 9.99978 3.97762C10.1006 3.97762 10.2004 3.95729 10.2932 3.91786C10.3859 3.87842 10.4698 3.82068 10.5398 3.7481L11.8158 2.4231C12.2388 1.97663 12.7648 1.64064 13.3478 1.44452C13.9308 1.2484 14.5529 1.19813 15.1598 1.2981C16.3778 1.5031 17.4398 2.3081 18.0018 3.4761C18.7578 5.0471 18.4578 6.9421 17.2718 8.1751L17.2618 8.1861L9.99978 16.0571Z" stroke="#4BB24E" stroke-width="1.5" stroke-linecap="round" stroke-linejoin="round"/>
</svg>
